<?xml version="1.0" standalone="no"?>
<!DOCTYPE svg PUBLIC "-//W3C//DTD SVG 20010904//EN"
 "http://www.w3.org/TR/2001/REC-SVG-20010904/DTD/svg10.dtd">
<svg version="1.0" xmlns="http://www.w3.org/2000/svg"
 width="64.000000pt" height="64.000000pt" viewBox="0 0 64.000000 64.000000"
 preserveAspectRatio="xMidYMid meet">

<g transform="translate(0.000000,64.000000) scale(0.100000,-0.100000)"
fill="#000000" stroke="none">
<path d="M202 618 c4 -10 47 -14 160 -16 213 -4 197 18 200 -277 3 -197 5
-230 18 -230 13 0 15 29 18 185 4 241 -1 281 -39 320 l-31 30 -165 0 c-127 0
-164 -3 -161 -12z"/>
<path d="M93 542 c-26 -17 -33 -69 -33 -261 0 -223 6 -254 52 -270 40 -14 316
-14 356 0 45 15 54 56 50 224 -2 116 -6 140 -18 140 -13 0 -15 -26 -18 -160
-2 -136 -5 -162 -19 -173 -24 -17 -322 -17 -346 1 -16 11 -17 35 -15 242 l3
230 136 3 136 3 12 -40 c10 -34 17 -42 51 -52 50 -15 70 -7 70 30 0 20 -10 40
-31 60 l-31 31 -171 0 c-95 0 -177 -4 -184 -8z m364 -44 c24 -22 31 -48 12
-48 -25 0 -49 22 -49 45 0 31 7 31 37 3z"/>
</g>
</svg>
